{
  "asset": {
    "version": "2.0",
    "generator": "HandmadeBannerPlane"
  },
  "scenes": [
    {
      "nodes": [
        0
      ]
    }
  ],
  "nodes": [
    {
      "mesh": 0
    }
  ],
  "meshes": [
    {
      "name": "BannerPlane",
      "primitives": [
        {
          "attributes": {
            "POSITION": 0
          }
        }
      ]
    }
  ],
  "buffers": [
    {
      "uri": "data:application/octet-stream;base64,",
      "byteLength": 72
    }
  ],
  "bufferViews": [
    {
      "buffer": 0,
      "byteOffset": 0,
      "byteLength": 72
    }
  ],
  "accessors": [
    {
      "bufferView": 0,
      "componentType": 5126,
      "count": 6,
      "type": "VEC3",
      "max": [
        0.5,
        0,
        0.5
      ],
      "min": [
        -0.5,
        0,
        -0.5
      ]
    }
  ]
}
